<svg width="7px" height="20px" viewBox="0 0 7 20" version="1.1" xmlns="http://www.w3.org/2000/svg" xmlns:xlink="http://www.w3.org/1999/xlink">
    <g stroke="none" stroke-width="1" fill="none" fill-rule="evenodd">
        <g id="horizontal" transform="translate(3.500000, 10.000000) scale(-1, 1) rotate(-270.000000) translate(-3.500000, -10.000000) translate(-6.500000, 6.500000)" fill="#000000" fill-rule="nonzero">
            <polygon id="Rectangle-2-Copy-10" fill-opacity="0.02" points="19 3 20 3 20 5 20 7 19 7"></polygon>
            <rect id="Rectangle-2" x="0" y="0" width="1" height="7"></rect>
            <rect id="Rectangle-2-Copy" x="6" y="3" width="1" height="4"></rect>
            <rect id="Rectangle-2-Copy-3" x="8" y="3" width="1" height="4"></rect>
            <rect id="Rectangle-2-Copy-6" x="2" y="3" width="1" height="4"></rect>
            <rect id="Rectangle-2-Copy-7" x="4" y="3" width="1" height="4"></rect>
            <rect id="Rectangle-2-Copy-2" x="10" y="1" width="1" height="6"></rect>
            <rect id="Rectangle-2-Copy-4" x="12" y="3" width="1" height="4"></rect>
            <rect id="Rectangle-2-Copy-11" x="14" y="3" width="1" height="4"></rect>
            <rect id="Rectangle-2-Copy-12" x="16" y="3" width="1" height="4"></rect>
            <rect id="Rectangle-2-Copy-13" x="18" y="3" width="1" height="4"></rect>
        </g>
    </g>
</svg>
